<svg xmlns="http://www.w3.org/2000/svg" viewBox="0 0 379 201.42"><defs><style>.a{fill:#30221e;}.b{opacity:0.6;}.c{fill:#e00051;}.d{opacity:0.7;}.e{fill:#ffe400;}.f{fill:#231815;}</style></defs><title>title</title><path class="a" d="M248.46,83.89c.2-.63.44-1.25,1.22-1.27a1,1,0,0,1,1.09.85c0,.42-.82,2.71-.93,3.16a44.64,44.64,0,0,0-.87,4.82c-.11.83-.43,1.2-1.22,1.22-.95,0-1.42-.68-1.93-1.71-1.63-3.24-2.37-7.4-2.45-12.32a63.35,63.35,0,0,1,1.91-16c.46-1.87.62-2.58,1.61-2.6a1.19,1.19,0,0,1,1.3,1.06c0,.33-.85,3.4-1,4a53.76,53.76,0,0,0-1.58,13.47,31.29,31.29,0,0,0,1.71,10.06A30.55,30.55,0,0,1,248.46,83.89Zm15.88-22c0-.21-.15-1.28-.15-1.44a1.11,1.11,0,0,1,1.22-1.14,1.14,1.14,0,0,1,1.26,1c.1,1.15.35,6.28.42,7.64a24,24,0,0,0,3.87-1,13.21,13.21,0,0,1,1.77-.53c.7,0,1,.72,1.06,1.26,0,.83-.56,1-1.47,1.31a46.75,46.75,0,0,1-5.15,1.16c.12,2.07.61,11.12.68,13,4,1.34,6.94,4.14,7,5.26a1.21,1.21,0,0,1-1,1.26c-.54,0-1-.4-2.06-1.54a13.06,13.06,0,0,0-3.81-2.58c0,1.94,0,6.33-6.54,6.44-5.05.09-6.54-2.45-6.57-4.39-.07-3.85,4.7-5.21,8-5.27a14.25,14.25,0,0,1,2.78.24c-.13-5.08-.32-8.39-.59-12.11-2,.2-2.72.3-4.05.32a40.15,40.15,0,0,1-4.55-.25,1.22,1.22,0,0,1-1.14-1.18,1.13,1.13,0,0,1,1.1-1.26,15.22,15.22,0,0,1,1.57.22,28.36,28.36,0,0,0,3.36.19c.86,0,2.48-.13,3.59-.27C264.7,66.1,264.49,63.5,264.34,61.85Zm-1.76,22.53c-2.85.05-5.56,1.22-5.53,3,0,1.65,1.82,2.45,4,2.41,4.59-.08,4.63-2.85,4.59-5.13A13.45,13.45,0,0,0,262.58,84.38Z" transform="translate(0 -0.18)"/><path class="a" d="M285.9,60.82c0,.49-.38,6.75-.44,7.78-.09,1.87-.37,7.33-.3,11.22.07,4.17.18,10.25,6.5,10.14,4.72-.08,9.15-4.67,11.08-10.08.91-2.49,1-2.78,1.77-2.8A1.35,1.35,0,0,1,306,78.34c0,1.65-4.72,13.9-14.27,14.06-.75,0-6.78.08-8.39-6.3a26.27,26.27,0,0,1-.56-6.36c-.06-3.31.23-15,.54-18.63.07-.7.14-1.53,1.26-1.55A1.17,1.17,0,0,1,285.9,60.82Zm7.76,3.42c.62,0,1.88,1.29,2.64,2.11,1.89,2,2,2.24,2,2.65a1.15,1.15,0,0,1-1.1,1.14c-.49,0-.66-.2-1.72-1.42-.59-.69-1.56-1.67-2.44-2.57a1.29,1.29,0,0,1-.47-.86A1.1,1.1,0,0,1,293.66,64.24ZM297.57,61c.87,0,4.62,3.93,4.63,4.76a1.09,1.09,0,0,1-1.13,1.13c-.46,0-.59-.11-1.6-1.29-.38-.49-1.85-2-2.65-2.81a.87.87,0,0,1-.35-.7A1.1,1.1,0,0,1,297.57,61Z" transform="translate(0 -0.18)"/><path class="a" d="M330.81,61.91c.11-1.24.13-1.9,1.29-1.92a1.16,1.16,0,0,1,1.27,1.26c0,1.11-.63,4.64-.66,5,8.28.23,11.68,5.51,11.78,11.38.13,7.65-4.65,10.8-6,11.65a19.06,19.06,0,0,1-7,2.89A1.23,1.23,0,0,1,330.2,91c0-.83.4-1,2.37-1.53s9.63-3.15,9.48-11.87c-.09-4.88-3.1-9.17-9.76-9.18-.53,2.49-2,9.14-6,14.91a12.18,12.18,0,0,0,1.31,1.31,1.48,1.48,0,0,1,.56,1,1.27,1.27,0,0,1-1.22,1.26c-.62,0-1.38-.84-2.14-1.7-1.42,1.72-4,4.17-6.8,4.22-1.9,0-4.7-1.41-4.78-6,0-1-.1-6,5-11.17a44.18,44.18,0,0,1-1.74-7.54,1.11,1.11,0,0,1,1.22-1.1c.91,0,1,.73,1.14,1.18A40.49,40.49,0,0,0,320,70.58a20.28,20.28,0,0,1,10.27-4.19C330.53,64.81,330.74,62.74,330.81,61.91Zm-11.9,12.66a13.91,13.91,0,0,0-3.4,8.75c.05,2.6,1.26,3.78,2.55,3.76,2.11,0,4.26-2.35,5.35-3.61A32.16,32.16,0,0,1,318.91,74.57Zm1.75-1.77a32,32,0,0,0,4.17,8.74,35.81,35.81,0,0,0,5-12.91A18.21,18.21,0,0,0,320.66,72.8Z" transform="translate(0 -0.18)"/><path class="a" d="M376.51,81c-.06-3.55-3.3-6.6-7.76-6.52-7.49.13-12,4.92-14.43,7.41-1.39,1.43-1.51,1.55-1.92,1.56a1.38,1.38,0,0,1-1.39-1.3c0-.54.2-.75,2.15-2.56,5.66-5.19,11.19-10.5,16.55-16-2.63.46-10.89,1.72-12.79,1.76a1.27,1.27,0,0,1-1.34-1.3c0-1,.39-1,2.71-1.21,2.14-.12,7.06-.7,8.58-1,.62-.13,3.26-.63,3.8-.64a1.92,1.92,0,0,1,1.89,2c0,1-.35,1.33-2.67,3.48S364.2,72.07,362,74.1a17.24,17.24,0,0,1,6.79-1.69c5.79-.1,10.12,3.79,10.21,8.75.08,4.51-3.29,10.61-12.68,10.77-4.67.09-8.34-1.59-8.41-5.35,0-2.4,1.75-4.37,4.77-4.43s5.82,2,5.87,4.86a5.69,5.69,0,0,1-.74,2.79C375,88.68,376.56,83.94,376.51,81ZM366.24,87.3a3.32,3.32,0,0,0-3.49-3.08,2.39,2.39,0,0,0-2.56,2.44c0,1.91,1.83,3.07,4.9,3.19A3.61,3.61,0,0,0,366.24,87.3Z" transform="translate(0 -0.18)"/><path class="a" d="M126.88,158.41v.12c0,3.52-2.21,8-10.27,8-5.31,0-6.86-1-6.86-3.46a2.58,2.58,0,0,1,2.44-2.8,1.66,1.66,0,0,1,.54.06,21.81,21.81,0,0,0,3.82.41c2.45,0,4.3-.77,4.3-3.46,0-25.31,0-25.9-.18-30.74-.12-3.52-1.67-3.88-4.24-3.94-4.36-.06-8.71-.12-13-.12s-8.54.06-12.6.12c-3.4.06-4.35,1.08-4.41,4.12-.18,7-.24,14.62-.24,22.56,0,5,0,10.15.06,15.4v.06a2.67,2.67,0,0,1-2.93,2.57c-1.55,0-3-.9-3-2.57,0-16,.24-35,.36-40.17.06-4.18,2.8-7,7.46-7.1,5.25-.12,10.8-.18,16.47-.18,4.9,0,9.85.06,14.69.18,4.29.12,7.16,2.62,7.28,6.74.24,9.08.12,19,.24,25.79ZM93,131.72a2.42,2.42,0,0,1,0-4.83h21.19a2.42,2.42,0,0,1,0,4.83Zm10.39,23.52c-9.43,0-11-.24-11-9.07,0-1.79.06-3.7.11-5.13a4.86,4.86,0,0,1,5.08-4.9c2.09-.06,4.24-.12,6.39-.12,1.79,0,3.58.06,5.31.12,3.1.12,5,2,5.13,4.9.06,1.31.12,2.92.12,4.47C114.52,154.35,114.28,155.24,103.36,155.24Zm5.85-9.07c0-1.37,0-2.81-.06-3.76-.12-1.85-1.61-1.91-6-1.91-1.31,0-2.63.06-3.82.12-1.85.12-1.91,1.31-1.91,4.47,0,1.26,0,2.57.06,3.47.12,1.85,1.13,2,6,2,4.42,0,5.55-.42,5.61-1.85C109.21,148,109.21,147.12,109.21,146.17Z" transform="translate(0 -0.18)"/><path class="a" d="M165.67,127.49a1.12,1.12,0,0,1,.06.47c1.13,14.63,11.88,27.34,21.85,31a3.07,3.07,0,0,1,2.33,2.93,3.81,3.81,0,0,1-3.94,3.64c-5.08,0-17.67-10.87-22.87-24.47-3.34,10.32-10.08,19.51-21.49,24.83a3.8,3.8,0,0,1-1.73.41,3.43,3.43,0,0,1-3.46-3.28,3.24,3.24,0,0,1,2.21-2.92c20.36-9.08,20.89-30,20.89-34.5,0-1.79-.12-3.82-.24-5.62v-.17a3.33,3.33,0,0,1,6.63.17c0,2.09-.06,4.66-.24,7.23Z" transform="translate(0 -0.18)"/><path class="a" d="M198.26,129.4a2.38,2.38,0,0,1-2.57-2.45,2.41,2.41,0,0,1,2.57-2.45h15.87A2.39,2.39,0,0,1,216.7,127a2.42,2.42,0,0,1-2.57,2.45Zm8.05,36.17c-1.43,0-2.86-.06-4.05-.12a4.55,4.55,0,0,1-4.42-4.72c0-1.55-.06-2.92-.06-4.29s.06-2.69.06-4a4.45,4.45,0,0,1,4.36-4.54c1.13-.06,2.44-.12,3.82-.12,1.67,0,3.34.06,4.71.12,2.27.12,4.72,1.67,4.78,4.24.06,1,.06,2.15.06,3.28s0,2.21-.06,3.28a19.69,19.69,0,0,0,3-6.8,2.21,2.21,0,0,1,2.27-1.85,2.52,2.52,0,0,1,2.62,2.39c0,.71-2.32,10.74-6.32,10.74a3.19,3.19,0,0,1-2-.71C214,165.51,211.15,165.57,206.31,165.57Zm-5.61-44.35a2.39,2.39,0,0,1,0-4.78h11.94a2.39,2.39,0,1,1,0,4.78Zm.12,15.94a2.39,2.39,0,0,1,0-4.78h11.94a2.39,2.39,0,1,1,0,4.78Zm0,7.7a2.39,2.39,0,1,1,0-4.78h11.94a2.39,2.39,0,1,1,0,4.78Zm9.79,11.75c0-1,0-2-.06-2.8-.12-1.43-1.13-1.61-3.94-1.61-3.94,0-4,0-4,4.41,0,1,.06,2,.06,2.87.06,1.13,1,1.43,3.76,1.43,3.35,0,4.06-.47,4.12-1.49C210.61,158.59,210.61,157.63,210.61,156.61Zm10.86-15.75a2.55,2.55,0,1,1,0-5.08l8,.06v-7l-9.49.06a2.52,2.52,0,0,1-2.62-2.57,2.48,2.48,0,0,1,2.62-2.56l9.43.06v-6.21a2.59,2.59,0,0,1,2.81-2.63,2.66,2.66,0,0,1,2.86,2.63l-.05,6.21,11.22-.06a2.62,2.62,0,0,1,2.86,2.56,2.59,2.59,0,0,1-2.86,2.57L235,128.8l-.06,7,8.89-.06a2.56,2.56,0,1,1,0,5.08Zm8.9,9.49c-.06,1.79-.18,4.65-.18,6.92,0,3.11.12,3.88,3.58,3.88,2.39,0,4.06-.48,4.06-2.56a2.29,2.29,0,0,1,2.39-2.45,2.79,2.79,0,0,1,3,3c0,6.87-6.26,7-10.56,7s-7.7-1.14-7.7-6.21c0-2.15.06-6.93.12-9.55a2.37,2.37,0,0,1,2.56-2.27c1.38,0,2.75.83,2.75,2.21ZM235,150a14.81,14.81,0,0,0-5.44-3.94,1.93,1.93,0,0,1-1.19-1.73,2.79,2.79,0,0,1,2.74-2.51c.78,0,8.3,2.75,8.3,6.15a3,3,0,0,1-2.74,3A2,2,0,0,1,235,150Zm10.8,9.07a16.71,16.71,0,0,0-4.9-5.31,2.37,2.37,0,0,1-1.13-1.85,2.65,2.65,0,0,1,2.75-2.39c2.5,0,8.53,5.25,8.53,8.06a3,3,0,0,1-2.86,3A2.85,2.85,0,0,1,245.83,159.06Z" transform="translate(0 -0.18)"/><path class="a" d="M268.68,145.81c-3.94,0-4.83.18-4.83,2.27v2.86c0,2.57,0,5.62.06,7.82v.06a2.6,2.6,0,0,1-5.19,0c0-1.61-.06-3.7-.06-5.85s.06-4.29.06-5.91c.18-5.55,3.4-5.55,10-5.55v-4.18l-9.67.06a2.3,2.3,0,1,1,0-4.59h9.67V128h-5c-1.31,2.45-2.33,3.76-3.94,3.76A2.63,2.63,0,0,1,257,129.4a2.1,2.1,0,0,1,.41-1.26,22.69,22.69,0,0,0,4.18-8.65,2.18,2.18,0,0,1,2.27-1.55c1.37,0,2.8.83,2.8,2.2a13.62,13.62,0,0,1-.95,3.23l3,.06v-6.09a2.73,2.73,0,0,1,5.44,0v6.09l7.75-.06a2.3,2.3,0,1,1,0,4.59h-7.75v4.84H284a2.3,2.3,0,1,1,0,4.59l-9.84-.06v4.18c1.61,0,3.16,0,4.53.06,3.94.12,5.67,1.91,5.67,5.61,0,1.73,0,4.84.06,6.87v.36c0,3.46-1.37,6.09-5.55,6.09-2.8,0-3.82-.72-3.82-2.63,0-1.2.6-2.39,1.73-2.39a2.6,2.6,0,0,0,.3.06,4.71,4.71,0,0,0,.84.12c.77,0,1.43-.36,1.43-1.85,0,0,0-4-.06-5.73,0-2.15-1.43-2.27-5.13-2.27v18a2.72,2.72,0,1,1-5.44,0ZM289,121.52a2.61,2.61,0,0,1,2.75-2.69,2.66,2.66,0,0,1,2.8,2.69v30.2a2.79,2.79,0,0,1-5.55,0Zm16.83,36.77v.12c0,3.58-2.39,7.76-9.67,7.76-4.83,0-6.92-.84-6.92-3.41a2.76,2.76,0,0,1,2.56-3,2.46,2.46,0,0,1,.66.06,21.26,21.26,0,0,0,4.06.66c1.79,0,3.34-.66,3.4-3.17.06-2.21.06-18.62.06-29.55v-9.37a2.87,2.87,0,0,1,5.73,0v32.71Z" transform="translate(0 -0.18)"/><path class="a" d="M324.49,164.55l.6-28.53c-4.72,6-6.51,6.87-7.88,6.87a2.78,2.78,0,0,1-2.81-2.69,3,3,0,0,1,1.08-2.15A55,55,0,0,0,329.86,117a2.56,2.56,0,0,1,2.57-1.79,3.21,3.21,0,0,1,3.28,2.92c0,1.26-2.69,6.21-4.78,9.56l-.71,36.88a2.72,2.72,0,0,1-2.87,2.75,2.68,2.68,0,0,1-2.86-2.69Zm26.8-10.68V164.2a2.87,2.87,0,1,1-5.73,0V130.41h-2.21a66.33,66.33,0,0,1-6.45,10.09,3.57,3.57,0,0,1-2.68,1.55,2.67,2.67,0,0,1-2.69-2.63,3.06,3.06,0,0,1,.78-1.91,52.11,52.11,0,0,0,10.09-20.23,2.7,2.7,0,0,1,2.74-2.21,2.94,2.94,0,0,1,3.11,2.69c0,.95-1.79,5.73-2.51,7.46h20.59a2.52,2.52,0,0,1,2.57,2.62,2.44,2.44,0,0,1-2.57,2.57h-15v6.45h12.3a2.51,2.51,0,0,1,2.56,2.62,2.43,2.43,0,0,1-2.56,2.57h-12.3v6.63h12.89a2.52,2.52,0,0,1,2.57,2.62,2.44,2.44,0,0,1-2.57,2.57Z" transform="translate(0 -0.18)"/><path class="a" d="M214.83,73.47c-.43,0-2.24.36-2.64.36a1.16,1.16,0,0,1-1.13-1.26c0-1,.82-1.13,1.21-1.18s2.24-.15,2.61-.21l13-1.46c.53,0,2.32-.26,2.76-.26A1.13,1.13,0,0,1,232,70.65c0,1.07-.71,1.1-2.42,1.15a9,9,0,0,0-5.95,2,10.37,10.37,0,0,0-3.53,8.14c0,3.14,1.24,4.37,5.11,4.5,1.32,0,2,.08,2,1.11,0,1.25-1.13,1.28-1.6,1.28-7.61,0-7.82-4.34-7.82-6.65a11.55,11.55,0,0,1,4.58-9.72Zm11.61,1.8c.44,0,.89.51,1.6,1.36,1.06,1.29,1.16,1.54,1.16,1.8a.84.84,0,0,1-.84.8c-.34,0-.45-.18-1.32-1.29-.18-.23-1-1.18-1.24-1.39a.76.76,0,0,1,.64-1.28Zm2.42-1.75c.5,0,1.39,1.13,1.92,1.78.71.87.84,1.13.84,1.41a.81.81,0,0,1-.84.77c-.37,0-.42-.13-1.29-1.23-.16-.21-.29-.34-1.26-1.44a.84.84,0,0,1-.21-.52A.87.87,0,0,1,228.86,73.52Z" transform="translate(0 -0.18)"/><g class="b"><path class="c" d="M54,102.12c1.08-.21,2.13-.47,3.16-.76a2.2,2.2,0,0,1,0-.36A2.88,2.88,0,0,1,60,98.12h0a2.9,2.9,0,0,1,2.39,1.27,37.91,37.91,0,0,0,6.76-4.13,2.3,2.3,0,0,1,0-.26A2.88,2.88,0,0,1,72,92.12h0a5.07,5.07,0,0,0-1.18-5.46l-5.4-5.21A4.76,4.76,0,0,0,59,81.16a19.84,19.84,0,0,1-3.64,2.5c-.44.24-.9.45-1.36.65h0a18.41,18.41,0,0,1-4.81,1.3,2.77,2.77,0,0,1-1.19.27h0a2.75,2.75,0,0,1-.65-.08c-.48,0-1,0-1.45,0a21,21,0,0,1-8.61-1.74,19.86,19.86,0,0,1-6.74-4.84,22,22,0,0,1-4.11-6.74A2.89,2.89,0,0,1,24,73.88h0a2.88,2.88,0,0,1,0-5.76h0a2.84,2.84,0,0,1,1.19.27,29.18,29.18,0,0,1-.65-6.17c0-.14,0-.26,0-.4a2.6,2.6,0,0,1-.56.06h0a2.88,2.88,0,1,1,0-5.76h0a2.87,2.87,0,0,1,1.14.24,24.63,24.63,0,0,1,1-3.56,22.69,22.69,0,0,1,4.46-7.46,20.39,20.39,0,0,1,3-2.71,3,3,0,0,1-.5-1.63A2.88,2.88,0,0,1,36,38.12h0a2.89,2.89,0,0,1,2.67,1.8,21.31,21.31,0,0,1,7.55-1.33A21.66,21.66,0,0,1,54,40.07l.72.27a16.64,16.64,0,0,1,2.48,1.3,2.67,2.67,0,0,1-.08-.64A2.88,2.88,0,0,1,60,38.12h0a2.87,2.87,0,0,1,1.28,5.45,4.77,4.77,0,0,0,3.58-1.43l5-5.17a2.84,2.84,0,0,1-.79-2,2.88,2.88,0,0,1,2.4-2.83,4.64,4.64,0,0,0-1.71-2.86,32.14,32.14,0,0,0-8.55-4.71A46.86,46.86,0,0,0,54,22.55h0c-1.1-.22-2.2-.39-3.3-.52A2.85,2.85,0,0,1,48,25.88h0A2.88,2.88,0,0,1,45.12,23a2.91,2.91,0,0,1,.31-1.28,44.73,44.73,0,0,0-15.89,2.83,38.33,38.33,0,0,0-13,8.11,37.06,37.06,0,0,0-4.67,5.47H12a2.88,2.88,0,0,1,0,5.76h0a2.86,2.86,0,0,1-2.58-1.63c-.54,1-1.05,2.1-1.51,3.2A43.16,43.16,0,0,0,4.78,62.22,43.13,43.13,0,0,0,7.86,78.77a40.48,40.48,0,0,0,3.94,7.37l.2,0h0A2.88,2.88,0,0,1,14.88,89a3,3,0,0,1-.16.91c.53.6,1.07,1.19,1.64,1.76a37.55,37.55,0,0,0,4.86,4,2.84,2.84,0,0,1-.1-.72A2.88,2.88,0,0,1,24,92.12h0a2.88,2.88,0,0,1,.59,5.7A39.11,39.11,0,0,0,29.16,100a38.35,38.35,0,0,0,4,1.35,1.86,1.86,0,0,1,0-.34A2.88,2.88,0,0,1,36,98.12h0A2.88,2.88,0,0,1,38.88,101a2.78,2.78,0,0,1-.41,1.45,47.09,47.09,0,0,0,6.79.48,45.13,45.13,0,0,0,8.74-.81Zm6-76h0a2.88,2.88,0,1,1,0,5.76h0a2.88,2.88,0,0,1,0-5.76ZM62.88,89A2.88,2.88,0,0,1,60,91.88h0a2.88,2.88,0,0,1,0-5.76h0A2.88,2.88,0,0,1,62.88,89ZM48,92.12h0a2.88,2.88,0,1,1,0,5.76h0a2.88,2.88,0,0,1,0-5.76Zm-12-6a2.88,2.88,0,1,1,0,5.76h0a2.88,2.88,0,0,1,0-5.76Zm-24-36h0a2.88,2.88,0,0,1,0,5.76h0a2.88,2.88,0,1,1,0-5.76ZM26.88,35A2.88,2.88,0,0,1,24,37.88h0a2.88,2.88,0,1,1,0-5.76h0A2.88,2.88,0,0,1,26.88,35Zm-12,30A2.88,2.88,0,0,1,12,67.88h0a2.88,2.88,0,0,1,0-5.76h0A2.88,2.88,0,0,1,14.88,65Zm6.24,18A2.88,2.88,0,0,1,24,80.12h0a2.88,2.88,0,1,1,0,5.76h0A2.88,2.88,0,0,1,21.12,83ZM24,49.88h0a2.88,2.88,0,1,1,0-5.76h0a2.88,2.88,0,0,1,0,5.76Zm24-12h0a2.88,2.88,0,0,1,0-5.76h0a2.88,2.88,0,0,1,0,5.76ZM36,26.12h0a2.88,2.88,0,1,1,0,5.76h0a2.88,2.88,0,0,1,0-5.76Zm-24,48h0a2.88,2.88,0,1,1,0,5.76h0a2.88,2.88,0,0,1,0-5.76Z" transform="translate(0 -0.18)"/><path class="c" d="M102,86.94a21.27,21.27,0,0,1-4.32-1.61,2.86,2.86,0,0,1-1.68.55h0A2.88,2.88,0,0,1,93.12,83a2.94,2.94,0,0,1,0-.51,4.82,4.82,0,0,0-6.54.34l-3.22,3.36a2.88,2.88,0,0,1,.59-.07h0a2.88,2.88,0,0,1,0,5.76h0A2.88,2.88,0,0,1,81.12,89a1.86,1.86,0,0,1,0-.33,5,5,0,0,0,1,6.71,35,35,0,0,0,8.44,4.56A43.6,43.6,0,0,0,102,102.62h0c1.25.12,2.51.18,3.78.19A2.86,2.86,0,0,1,108,98.12h0a2.88,2.88,0,0,1,2.88,2.88,2.83,2.83,0,0,1-.48,1.58A37.63,37.63,0,0,0,117,101.3a27.2,27.2,0,0,0,9.25-4.68,22.13,22.13,0,0,0,4.62-5A2.88,2.88,0,0,1,132,86.12h0a2.86,2.86,0,0,1,1.53.45,27.41,27.41,0,0,0,1.53-9.44,19.19,19.19,0,0,0-2.12-9.42,3,3,0,0,1-.94.17h0A2.88,2.88,0,0,1,129.12,65a2.84,2.84,0,0,1,.57-1.69,20.82,20.82,0,0,0-2.5-2.29,28.44,28.44,0,0,0-4.43-2.78,2.74,2.74,0,0,1,.12.76A2.88,2.88,0,0,1,120,61.88h0a2.87,2.87,0,0,1-1.33-5.42c-2.41-.9-4.75-1.75-7-2.52l-.88-.29a2.87,2.87,0,0,1-2.8,2.23h0A2.88,2.88,0,0,1,105.12,53a2.94,2.94,0,0,1,.35-1.35,18,18,0,0,1-2.24-1.19,8,8,0,0,1-1.23-1l-1.11-1.34a6.18,6.18,0,0,1-.79-3.26,6.44,6.44,0,0,1,1-3.76l.89-1.08a8.4,8.4,0,0,1,1.6-1.31A9.32,9.32,0,0,1,107,37.5a21.93,21.93,0,0,1,3.67-.32A18.6,18.6,0,0,1,121,40.85a4.72,4.72,0,0,0,6.33-.62l4.56-4.93a5.07,5.07,0,0,0,1.32-3.69,2.9,2.9,0,0,1-1.21.27h0A2.88,2.88,0,0,1,129.12,29a2.82,2.82,0,0,1,.79-2,35.42,35.42,0,0,0-6-2.82l-1.2-.4A2.86,2.86,0,0,1,120,25.88h0a2.85,2.85,0,0,1-2.81-3.48,35.18,35.18,0,0,0-6.25-.57,41.45,41.45,0,0,0-8.94,1l-1.58.36c-.56.14-1.09.33-1.63.5A2.87,2.87,0,0,1,96,25.88h0a2.85,2.85,0,0,1-1.5-.43,28.3,28.3,0,0,0-3.44,2A22.52,22.52,0,0,0,84.37,35a18.36,18.36,0,0,0-1.43,3.33A2.86,2.86,0,0,1,84,38.12h0a2.88,2.88,0,0,1,0,5.76h0A2.86,2.86,0,0,1,82,43a28.19,28.19,0,0,0-.15,3,26.25,26.25,0,0,0,.4,4.76A2.85,2.85,0,0,1,84,50.12h0a2.88,2.88,0,0,1,0,5.76h0a19.13,19.13,0,0,0,3.84,5.2A23.75,23.75,0,0,0,94,65.27a62.24,62.24,0,0,0,7.06,2.83l1,.31c2.09.68,4,1.32,5.69,1.92a24.37,24.37,0,0,1,4.89,2.28,10.54,10.54,0,0,1,3,2.78,6.3,6.3,0,0,1,1.06,3.7,8.34,8.34,0,0,1-.85,3.92,7,7,0,0,1-2.28,2.61A9.56,9.56,0,0,1,110.19,87h-.08A2.87,2.87,0,0,1,108,91.88h0A2.88,2.88,0,0,1,105.12,89a2.85,2.85,0,0,1,.46-1.55,17.07,17.07,0,0,1-3.58-.51ZM110.88,29A2.88,2.88,0,0,1,108,31.88h0a2.88,2.88,0,1,1,0-5.76h0A2.88,2.88,0,0,1,110.88,29ZM120,37.88h0a2.88,2.88,0,1,1,0-5.76h0a2.88,2.88,0,0,1,0,5.76ZM93.12,47A2.88,2.88,0,0,1,96,44.12h0a2.88,2.88,0,0,1,0,5.76h0A2.88,2.88,0,0,1,93.12,47Zm0-12A2.88,2.88,0,0,1,96,32.12h0a2.88,2.88,0,0,1,0,5.76h0A2.88,2.88,0,0,1,93.12,35ZM96,56.12h0a2.88,2.88,0,0,1,0,5.76h0a2.88,2.88,0,1,1,0-5.76Zm24,41.76h0a2.88,2.88,0,0,1,0-5.76h0a2.88,2.88,0,0,1,0,5.76Zm0-29.76h0a2.88,2.88,0,0,1,0,5.76h0a2.88,2.88,0,0,1,0-5.76ZM122.88,83A2.88,2.88,0,0,1,120,85.88h0a2.88,2.88,0,0,1,0-5.76h0A2.88,2.88,0,0,1,122.88,83Zm12-6A2.88,2.88,0,0,1,132,79.88h0a2.88,2.88,0,0,1,0-5.76h0A2.88,2.88,0,0,1,134.88,77ZM108,67.88a2.88,2.88,0,1,1,0-5.76h0a2.88,2.88,0,0,1,0,5.76ZM96,92.12h0a2.88,2.88,0,0,1,0,5.76h0a2.88,2.88,0,0,1,0-5.76Z" transform="translate(0 -0.18)"/><path class="c" d="M162,86.72a22.46,22.46,0,0,1-3.91-1.59A24.71,24.71,0,0,1,154,82.51a4.83,4.83,0,0,0-6.58.32l-.61.63a2.85,2.85,0,0,1-2.26,2.36l-2,2.14a5.1,5.1,0,0,0-1,5.55A2.87,2.87,0,0,1,144,92.12h0a2.87,2.87,0,0,1,1.82,5.1,37.12,37.12,0,0,0,5.63,2.72c.57.22,1.14.42,1.72.61A2.86,2.86,0,0,1,156,98.12h0a2.88,2.88,0,0,1,2.88,2.88,2.79,2.79,0,0,1-.19,1c1.09.22,2.2.38,3.31.51h0a42.6,42.6,0,0,0,5.07.31,37.92,37.92,0,0,0,10.1-1.37,2.31,2.31,0,0,1,0-.46A2.88,2.88,0,0,1,180,98.12h0a2.86,2.86,0,0,1,2.44,1.37,25.62,25.62,0,0,0,4.61-2.87,21,21,0,0,0,2.1-1.89,2.87,2.87,0,0,1,2.1-2.5,23.47,23.47,0,0,0,2.23-3.61,25.76,25.76,0,0,0,2.39-11.49,19,19,0,0,0-2.23-9.63A21.9,21.9,0,0,0,188,61a29.54,29.54,0,0,0-7.55-4.19q-4.14-1.57-8-2.89-2.66-.87-4.78-1.68a21.28,21.28,0,0,1-3.67-1.8,7.55,7.55,0,0,1-2-1.87l-.29-.42a6.08,6.08,0,0,1-.8-3.26,6.52,6.52,0,0,1,1-3.76l.08-.1a8.25,8.25,0,0,1,2.42-2.29A9.07,9.07,0,0,1,167,37.68a2.87,2.87,0,0,1,1-5.56h0A2.88,2.88,0,0,1,170.88,35a2.84,2.84,0,0,1-1.11,2.25c.56,0,1.11-.07,1.66-.07a16.7,16.7,0,0,1,6.78,1.58,2.87,2.87,0,0,1,1.79-.64h0A2.88,2.88,0,0,1,182.88,41a2.71,2.71,0,0,1,0,.41,4.73,4.73,0,0,0,5.3-1.18l2.5-2.7A2.87,2.87,0,0,1,192,32.12h0a2.86,2.86,0,0,1,1.92.75,4.88,4.88,0,0,0-2-5.11,34.6,34.6,0,0,0-7.13-3.54,38.4,38.4,0,0,0-13-2.39c-.37,0-.74,0-1.11,0a2.87,2.87,0,0,1-2.64,4h0A2.88,2.88,0,0,1,165.12,23a2.72,2.72,0,0,1,.08-.63c-1.07.18-2.14.39-3.2.64l-.77.18a28.46,28.46,0,0,0-9.35,4.3,22.12,22.12,0,0,0-5.6,5.77A2.87,2.87,0,0,1,144,37.88h-.09a23.24,23.24,0,0,0-1.24,6.59,2.85,2.85,0,0,1,1.33-.34h0a2.88,2.88,0,0,1,0,5.76h0a2.93,2.93,0,0,1-1.11-.22,18.33,18.33,0,0,0,1.39,5.21c.23.5.48,1,.73,1.45A2.87,2.87,0,0,1,146.88,59s0,.08,0,.11a18.42,18.42,0,0,0,1.77,2,23.42,23.42,0,0,0,4.54,3.34,2.88,2.88,0,0,1,2.82-2.3h0A2.88,2.88,0,0,1,158.88,65a2.83,2.83,0,0,1-.63,1.77c1.19.48,2.4.92,3.62,1.33l.13,0c1.29.42,2.51.82,3.65,1.21A2.87,2.87,0,0,1,168,68.12h0A2.88,2.88,0,0,1,170.88,71a2.48,2.48,0,0,1,0,.27,21.52,21.52,0,0,1,2.55,1.34,10.54,10.54,0,0,1,3,2.78,6.17,6.17,0,0,1,.71,1.46A2.87,2.87,0,0,1,180,74.12h0a2.88,2.88,0,0,1,0,5.76h0a2.85,2.85,0,0,1-2.56-1.6c0,.27.05.53.05.81a8.47,8.47,0,0,1-.85,3.92,7,7,0,0,1-2.29,2.61A9.51,9.51,0,0,1,171,87a17.83,17.83,0,0,1-9-.32ZM158.88,53A2.88,2.88,0,0,1,156,55.88h0a2.88,2.88,0,1,1,0-5.76h0A2.88,2.88,0,0,1,158.88,53Zm-5.76-12A2.88,2.88,0,0,1,156,38.12h0a2.88,2.88,0,0,1,0,5.76h0A2.88,2.88,0,0,1,153.12,41Zm5.76-12A2.88,2.88,0,0,1,156,31.88h0a2.88,2.88,0,1,1,0-5.76h0A2.88,2.88,0,0,1,158.88,29Zm24,0A2.88,2.88,0,0,1,180,31.88h0a2.88,2.88,0,1,1,0-5.76h0A2.88,2.88,0,0,1,182.88,29ZM156,86.12a2.88,2.88,0,0,1,0,5.76h0a2.88,2.88,0,0,1,0-5.76ZM177.12,89A2.88,2.88,0,0,1,180,86.12h0a2.88,2.88,0,0,1,0,5.76h0A2.88,2.88,0,0,1,177.12,89Zm-6.24,6A2.88,2.88,0,0,1,168,97.88h0a2.88,2.88,0,0,1,0-5.76h0A2.88,2.88,0,0,1,170.88,95ZM192,85.88h0a2.88,2.88,0,0,1,0-5.76h0a2.88,2.88,0,0,1,0,5.76Zm0-17.76a2.88,2.88,0,0,1,0,5.76h0a2.88,2.88,0,0,1,0-5.76ZM177.12,65A2.88,2.88,0,0,1,180,62.12h0a2.88,2.88,0,0,1,0,5.76h0A2.88,2.88,0,0,1,177.12,65Zm-6.24-6A2.88,2.88,0,0,1,168,61.88h0a2.88,2.88,0,1,1,0-5.76h0A2.88,2.88,0,0,1,170.88,59Z" transform="translate(0 -0.18)"/></g><path class="a" d="M46.26,98.46a45.86,45.86,0,0,1-16.61-3A38.62,38.62,0,0,1,7.55,74,42.85,42.85,0,0,1,4.36,57.3,42.75,42.75,0,0,1,7.61,40.38a37.94,37.94,0,0,1,9-13A40,40,0,0,1,30,19.21a47.76,47.76,0,0,1,32.7.05,33.83,33.83,0,0,1,8.93,4.79A6.06,6.06,0,0,1,74,28.47a6.31,6.31,0,0,1-1.84,4.91L66.86,38.7a6.25,6.25,0,0,1-8.26.51,14.86,14.86,0,0,0-3.42-2,20.86,20.86,0,0,0-8-1.59A20.31,20.31,0,0,0,39,37.29a19.25,19.25,0,0,0-6.38,4.51,20.56,20.56,0,0,0-4.18,6.81A24.36,24.36,0,0,0,27,57.3a25,25,0,0,0,1.5,8.85A20.59,20.59,0,0,0,32.58,73a18.73,18.73,0,0,0,6.27,4.39,20.18,20.18,0,0,0,8,1.58,18.73,18.73,0,0,0,8.8-2,18.48,18.48,0,0,0,3.38-2.27,6.23,6.23,0,0,1,8.31.33l5.4,5.09a6.31,6.31,0,0,1,2,4.77,6.15,6.15,0,0,1-2.17,4.53A38.88,38.88,0,0,1,63.75,95h0A42,42,0,0,1,46.26,98.46Zm.32-79.27A44.63,44.63,0,0,0,31,21.86a37.1,37.1,0,0,0-12.49,7.63,35.13,35.13,0,0,0-8.33,12,40.11,40.11,0,0,0-3,15.81,40,40,0,0,0,3,15.6A35.76,35.76,0,0,0,30.68,92.85a42.85,42.85,0,0,0,15.58,2.78,39.16,39.16,0,0,0,16.31-3.22,35.86,35.86,0,0,0,8.21-5.15,3.27,3.27,0,0,0,1.16-2.44,3.48,3.48,0,0,0-1.09-2.63l-5.41-5.08a3.43,3.43,0,0,0-4.52-.24A21.1,21.1,0,0,1,57,79.49,21.52,21.52,0,0,1,46.9,81.78,22.88,22.88,0,0,1,37.73,80a21.27,21.27,0,0,1-7.22-5.06,23.16,23.16,0,0,1-4.7-7.75,27.9,27.9,0,0,1-1.69-9.85,27.13,27.13,0,0,1,1.69-9.69,23.66,23.66,0,0,1,4.75-7.75,22.18,22.18,0,0,1,7.32-5.16,23.12,23.12,0,0,1,9.34-1.88,23.75,23.75,0,0,1,9,1.81A17.49,17.49,0,0,1,60.33,37a3.42,3.42,0,0,0,4.53-.27l5.33-5.33a3.49,3.49,0,0,0,1-2.71A3.15,3.15,0,0,0,70,26.3a31.11,31.11,0,0,0-8.18-4.38A44.21,44.21,0,0,0,46.58,19.19Z" transform="translate(0 -0.18)"/><path class="a" d="M107.26,98.35a45.92,45.92,0,0,1-16.12-2.9,36.89,36.89,0,0,1-8.77-4.63A6.07,6.07,0,0,1,79.9,86.4a6.33,6.33,0,0,1,1.79-5l4.92-5A6.37,6.37,0,0,1,95.07,76a23.57,23.57,0,0,0,3.85,2.42,17.87,17.87,0,0,0,12,1.74A8.57,8.57,0,0,0,113.75,79a5.45,5.45,0,0,0,1.82-2,6.59,6.59,0,0,0,.69-3.16,4.65,4.65,0,0,0-.8-2.79,9.09,9.09,0,0,0-2.63-2.33,22.94,22.94,0,0,0-4.6-2.09c-1.91-.66-4.14-1.39-6.6-2.17a65.43,65.43,0,0,1-7.24-2.83,25.51,25.51,0,0,1-6.53-4.33,20.62,20.62,0,0,1-4.68-6.51,22,22,0,0,1-1.78-9.25A22.76,22.76,0,0,1,84.14,30a23.55,23.55,0,0,1,7.12-7.79,30.51,30.51,0,0,1,9.8-4.41,41.14,41.14,0,0,1,24.36,1.05,36.19,36.19,0,0,1,7.43,3.59,6.1,6.1,0,0,1,2.76,4.4A6.33,6.33,0,0,1,133.92,32l-4.56,4.81h0a6.22,6.22,0,0,1-8.2.77,16.29,16.29,0,0,0-2.86-1.68,15.86,15.86,0,0,0-6.68-1.62,21.27,21.27,0,0,0-3.43.29,8.15,8.15,0,0,0-2.85,1,7,7,0,0,0-2.08,1.94,5,5,0,0,0-.75,2.85,4.61,4.61,0,0,0,.58,2.44A5.71,5.71,0,0,0,105,44.62a18.72,18.72,0,0,0,3.41,1.63c1.4.53,3,1.07,4.72,1.63,2.55.85,5.25,1.8,8,2.83A31,31,0,0,1,129,55a22.82,22.82,0,0,1,6,6.73,19.61,19.61,0,0,1,2.43,10.13,26,26,0,0,1-2.54,11.85A23.87,23.87,0,0,1,128.1,92a29,29,0,0,1-9.72,4.8A40.24,40.24,0,0,1,107.26,98.35ZM91,77.41a3.34,3.34,0,0,0-2.39,1l-4.93,5a3.54,3.54,0,0,0-1,2.75A3.22,3.22,0,0,0,84,88.52a34.2,34.2,0,0,0,8.1,4.27,43.13,43.13,0,0,0,15.13,2.73,37.68,37.68,0,0,0,10.34-1.43,26.41,26.41,0,0,0,8.78-4.33,21.16,21.16,0,0,0,6-7.33,23.22,23.22,0,0,0,2.24-10.57,16.9,16.9,0,0,0-2-8.68,20.1,20.1,0,0,0-5.27-5.91,28,28,0,0,0-7.18-3.9c-2.76-1-5.43-2-7.93-2.8-1.76-.56-3.39-1.13-4.83-1.67A22.4,22.4,0,0,1,103.48,47a8.58,8.58,0,0,1-2.79-2.69,7.3,7.3,0,0,1-1-3.94A7.66,7.66,0,0,1,101,35.92a9.63,9.63,0,0,1,2.92-2.73,10.91,10.91,0,0,1,3.84-1.41,23.84,23.84,0,0,1,3.91-.34,18.73,18.73,0,0,1,7.87,1.89,19.38,19.38,0,0,1,3.36,2,3.38,3.38,0,0,0,4.45-.44h0l4.56-4.81a3.47,3.47,0,0,0,.93-2.83,3.22,3.22,0,0,0-1.46-2.36,33.63,33.63,0,0,0-6.85-3.31,38.33,38.33,0,0,0-22.71-1,27.37,27.37,0,0,0-8.9,4,20.89,20.89,0,0,0-6.27,6.87,20,20,0,0,0-2.37,10,19.29,19.29,0,0,0,1.52,8.06,17.59,17.59,0,0,0,4,5.61A22.12,22.12,0,0,0,95.58,59a63,63,0,0,0,6.91,2.7c2.48.78,4.73,1.52,6.67,2.19a25.82,25.82,0,0,1,5.17,2.37,11.92,11.92,0,0,1,3.43,3.08,7.45,7.45,0,0,1,1.33,4.44,9.36,9.36,0,0,1-1,4.49,8.38,8.38,0,0,1-2.74,3.07,11.51,11.51,0,0,1-3.83,1.58,20.62,20.62,0,0,1-13.86-2,25.65,25.65,0,0,1-4.31-2.71A3.77,3.77,0,0,0,91,77.41Z" transform="translate(0 -0.18)"/><path class="a" d="M168.07,98.35A45.9,45.9,0,0,1,152,95.45a36.89,36.89,0,0,1-8.77-4.63,6.05,6.05,0,0,1-2.48-4.42,6.3,6.3,0,0,1,1.8-5l4.92-5a6.35,6.35,0,0,1,8.46-.44,23.47,23.47,0,0,0,3.84,2.42,17.88,17.88,0,0,0,12,1.74A8.63,8.63,0,0,0,174.57,79a5.54,5.54,0,0,0,1.82-2,6.71,6.71,0,0,0,.68-3.16,4.65,4.65,0,0,0-.8-2.79,9,9,0,0,0-2.62-2.33A23.31,23.31,0,0,0,169,66.56c-1.91-.66-4.13-1.39-6.6-2.17a64.51,64.51,0,0,1-7.23-2.83,25.17,25.17,0,0,1-6.53-4.33A20.49,20.49,0,0,1,144,50.72a22,22,0,0,1-1.78-9.25A22.87,22.87,0,0,1,145,30a23.66,23.66,0,0,1,7.12-7.79,30.47,30.47,0,0,1,9.81-4.41,41.14,41.14,0,0,1,24.36,1.05,35.86,35.86,0,0,1,7.42,3.59,6.07,6.07,0,0,1,2.76,4.4A6.33,6.33,0,0,1,194.73,32l-4.56,4.81h0a6.21,6.21,0,0,1-8.19.77,16.39,16.39,0,0,0-2.87-1.68,15.83,15.83,0,0,0-6.68-1.62,21.27,21.27,0,0,0-3.43.29,8.3,8.3,0,0,0-2.85,1,6.85,6.85,0,0,0-2.07,1.94,4.88,4.88,0,0,0-.75,2.85,4.52,4.52,0,0,0,.58,2.44,5.78,5.78,0,0,0,1.88,1.78,18.52,18.52,0,0,0,3.42,1.63c1.4.53,3,1.07,4.71,1.63,2.55.84,5.25,1.8,8,2.83a31.39,31.39,0,0,1,7.9,4.29,23.1,23.1,0,0,1,6,6.73,19.73,19.73,0,0,1,2.43,10.13,26.07,26.07,0,0,1-2.55,11.85,23.87,23.87,0,0,1-6.83,8.3,29,29,0,0,1-9.71,4.8A40.31,40.31,0,0,1,168.07,98.35ZM151.85,77.41a3.34,3.34,0,0,0-2.4,1l-4.92,5a3.47,3.47,0,0,0-1,2.75,3.16,3.16,0,0,0,1.31,2.35,34,34,0,0,0,8.1,4.27,43.11,43.11,0,0,0,15.12,2.73,37.7,37.7,0,0,0,10.35-1.43,26.46,26.46,0,0,0,8.77-4.33,21.09,21.09,0,0,0,6-7.33,23.35,23.35,0,0,0,2.24-10.57,16.89,16.89,0,0,0-2-8.68,20.21,20.21,0,0,0-5.26-5.91,28.18,28.18,0,0,0-7.19-3.9c-2.76-1-5.43-2-7.92-2.8-1.76-.56-3.39-1.12-4.84-1.67A22.29,22.29,0,0,1,164.3,47a8.38,8.38,0,0,1-2.79-2.69,7.22,7.22,0,0,1-1-3.94,7.66,7.66,0,0,1,1.27-4.48,9.63,9.63,0,0,1,2.92-2.73,11,11,0,0,1,3.84-1.41,23.84,23.84,0,0,1,3.91-.34,18.73,18.73,0,0,1,7.88,1.89,19.67,19.67,0,0,1,3.35,2,3.38,3.38,0,0,0,4.45-.44h0l4.57-4.81a3.51,3.51,0,0,0,.93-2.83,3.23,3.23,0,0,0-1.47-2.36,33.55,33.55,0,0,0-6.84-3.31,38.36,38.36,0,0,0-22.72-1,27.47,27.47,0,0,0-8.9,4,20.89,20.89,0,0,0-6.27,6.87,20,20,0,0,0-2.36,10,19.29,19.29,0,0,0,1.51,8.06,17.61,17.61,0,0,0,4,5.61A22.23,22.23,0,0,0,156.39,59a63,63,0,0,0,6.91,2.7c2.48.78,4.73,1.52,6.67,2.19a25.31,25.31,0,0,1,5.17,2.37,11.85,11.85,0,0,1,3.44,3.09,7.46,7.46,0,0,1,1.32,4.43,9.48,9.48,0,0,1-1,4.49,8.41,8.41,0,0,1-2.75,3.07,11.42,11.42,0,0,1-3.83,1.58,20.63,20.63,0,0,1-13.86-2,26.07,26.07,0,0,1-4.31-2.71A3.73,3.73,0,0,0,151.85,77.41Z" transform="translate(0 -0.18)"/><g class="d"><polygon class="e" points="106.78 14.16 100.85 0.78 115.41 2.34 106.78 14.16"/><polygon class="e" points="62.33 14.95 51 4.68 65.56 0 62.33 14.95"/><polygon class="e" points="17.16 23.68 0 20.99 10.92 7.47 17.16 23.68"/><polygon class="e" points="18.99 101.19 14.5 119.4 0.98 106.4 18.99 101.19"/><polygon class="e" points="62.41 101.95 77.74 109.79 63.28 119.15 62.41 101.95"/><polygon class="e" points="151.67 103.94 151.09 117.49 139.65 110.21 151.67 103.94"/><polygon class="e" points="196.87 91.43 213.57 91.07 205.54 105.71 196.87 91.43"/><polygon class="e" points="155.11 17.29 144.11 8.63 157.1 3.43 155.11 17.29"/><polygon class="e" points="191.55 18.41 191.8 6.26 202.19 12.55 191.55 18.41"/></g><path class="f" d="M316.38,191.35H315a.8.8,0,1,1,0-1.59h1.34v-3.41a.88.88,0,0,1,1.75,0v3.41h1.15a.8.8,0,0,1,0,1.59h-1.15v4c.43-.19.83-.39,1.2-.58a.9.9,0,0,1,.42-.12.7.7,0,0,1,.68.72.86.86,0,0,1-.53.78,24.73,24.73,0,0,1-5.08,2.09.79.79,0,0,1-.81-.83.81.81,0,0,1,.62-.81c.59-.17,1.19-.36,1.78-.57Zm13.93-.3c0,.51,0,1,0,1.43a1.86,1.86,0,0,1-2,1.68c-1,0-1.94.06-2.87.06s-2.09,0-3.17-.06c-1.34,0-2-.7-2.06-1.64,0-.42,0-.87,0-1.3s0-1.06,0-1.48c0-.77.55-1.58,2-1.62,1.17,0,2.33,0,3.53,0a1.44,1.44,0,0,1,.12-.32,18.08,18.08,0,0,0,1-2.13.7.7,0,0,1,.72-.42c.53,0,1.11.33,1.11.78a9.41,9.41,0,0,1-1.17,2.11l.93,0a1.8,1.8,0,0,1,1.9,1.49C330.31,190,330.31,190.54,330.31,191.05Zm-2.94,10.21c-.66,0-1.42.06-2.16.06s-1.45,0-2.09-.06c-1.23-.07-2-.75-2-1.7,0-.36,0-.73,0-1.11,0-.68,0-1.34.06-1.91,0-.81.6-1.57,1.92-1.62.62,0,1.32,0,2,0s1.7,0,2.36,0a1.72,1.72,0,0,1,1.81,1.51c0,.53.06,1.17.06,1.77s0,1,0,1.34A1.91,1.91,0,0,1,327.37,201.26Zm-3-11.89c-2.11,0-2.6,0-2.66.77,0,.1,0,.23,0,.34h2.68Zm0,2.39H321.7c0,.14,0,.27,0,.38.06.76.25.78,2.66.78Zm-1-3.83a.67.67,0,0,1-.64-.39,5.66,5.66,0,0,0-.81-1.19.58.58,0,0,1-.11-.32c0-.4.51-.72,1-.72.74,0,1.62,1.32,1.62,1.72A1,1,0,0,1,323.36,187.93Zm4.31,9.37c0-.14,0-.29,0-.4,0-.74-.43-.74-2.49-.74s-2.36,0-2.44.76a1.92,1.92,0,0,0,0,.38Zm-5,1.28,0,.64c0,.68.59.68,2.53.68,2.38,0,2.42,0,2.42-1.32Zm6-8.44c0-.73-.38-.77-2.74-.77v1.11h2.74Zm0,1.62h-2.74v1.16c.6,0,1.21,0,1.83,0s.89-.23.91-.76Z" transform="translate(0 -0.18)"/><path class="f" d="M333.69,189.67a.8.8,0,1,1,0-1.59h5.93a.8.8,0,1,1,0,1.59Zm4.63,11.55c-.4,0-1.06,0-1.7,0s-1.27,0-1.64,0a1.46,1.46,0,0,1-1.46-1.49c0-.41,0-.81,0-1.23s0-1.09,0-1.56a1.42,1.42,0,0,1,1.42-1.44c.43,0,1,0,1.58,0s1.4,0,1.85,0a1.56,1.56,0,0,1,1.57,1.34c0,.4,0,.93,0,1.46s0,1,0,1.41A1.57,1.57,0,0,1,338.32,201.22Zm-3.82-14.14a.74.74,0,0,1-.79-.77.75.75,0,0,1,.79-.77h4.31a.74.74,0,0,1,.79.77.75.75,0,0,1-.79.77Zm0,5a.77.77,0,0,1-.81-.77.76.76,0,0,1,.81-.77h4.3a.75.75,0,0,1,.8.77.76.76,0,0,1-.8.77Zm0,2.44a.76.76,0,0,1-.81-.78.75.75,0,0,1,.81-.77h4.3a.75.75,0,0,1,.8.77.77.77,0,0,1-.8.78Zm3.76,3.79c0-.34,0-.68,0-.94,0-.51-.45-.51-1.61-.51s-1.49,0-1.53.51c0,.3,0,.72,0,1.09s0,.57,0,.8.14.45,1.53.45c1.08,0,1.57,0,1.61-.47C338.3,199,338.3,198.67,338.3,198.35Zm6.21-10.13h-3.12a.84.84,0,1,1,0-1.67h7.05a.84.84,0,1,1,0,1.67h-2.08v8l0,2.78v0c0,1.09-.64,2.56-2.95,2.56s-2.26-.7-2.26-1.09a.89.89,0,0,1,.85-.93,1.38,1.38,0,0,1,.26,0,4.74,4.74,0,0,0,1.15.19c.63,0,1.08-.28,1.08-1.17Z" transform="translate(0 -0.18)"/><path class="f" d="M357.12,199.85c1.61-2.46,1.89-5.27,1.89-8,0-1.26-.06-2.51-.08-3.7s.63-1.76,1.93-1.79c1,0,2,0,3,0s2,0,2.91,0a.81.81,0,1,1,0,1.62h0c-1.12,0-2.36-.06-3.51-.06-.68,0-1.32,0-1.89,0s-.7.3-.7.74v1.75h4.53c.94,0,1.57.44,1.57,1.46a14.06,14.06,0,0,1-2,5.57,7,7,0,0,0,2.83,2.19.87.87,0,0,1,.57.83,1,1,0,0,1-1,1c-.45,0-1.77-.53-3.38-2.66-1.6,2-3.22,2.77-3.64,2.77a.86.86,0,0,1-.85-.89.83.83,0,0,1,.51-.77,8.09,8.09,0,0,0,3-2.59A13.31,13.31,0,0,1,361,191.9h-.38c-.06,3-.36,6.34-2,8.79a.92.92,0,0,1-.77.44,1,1,0,0,1-.78-.4.82.82,0,0,1-.87.78.79.79,0,0,1-.83-.8v0c0-.9,0-2.28,0-3.54,0-.89,0-1.7,0-2.25,0-.38-.17-.47-.53-.49-.15,0-.56,0-.94.05a18.2,18.2,0,0,1-1.23,6.27,1,1,0,0,1-.87.61.9.9,0,0,1-.94-.82.65.65,0,0,1,.09-.35c1.23-2.27,1.36-6.18,1.36-9.16,0-1.66,0-3.59-.05-4.63a.87.87,0,0,1,1.73,0v3.86h1.36v-4.16a.83.83,0,0,1,1.66,0v4.16H358a.71.71,0,0,1,.72.73.72.72,0,0,1-.72.76H354c0,.3,0,.58,0,.83V193c.5,0,1,0,1.38,0,1.38,0,1.68.59,1.7,1.59,0,.6,0,1.51,0,2.47s0,2,0,2.8Zm7.84-7.54c0-.24-.17-.39-.48-.39l-2,0a12.65,12.65,0,0,0,1.29,4A12.27,12.27,0,0,0,365,192.31Z" transform="translate(0 -0.18)"/></svg>